<svg xmlns="http://www.w3.org/2000/svg" viewBox="43 -290 2514 1980">
      <g transform="translate(0, 1400) scale(1,-1)">
      <path fill="currentColor" d="M1300 -290Q932 -290 622 -136Q312 18 43 319L209 426L80 536Q107 623 163.5 728Q220 833 290.5 930.5Q361 1028 429 1093Q395 1215 374.5 1328.5Q354 1442 354 1515Q354 1600 384.5 1645Q415 1690 485 1690Q585 1690 713 1642.5Q841 1595 971 1510Q1028 1544 1123.5 1567.5Q1219 1591 1300 1591Q1381 1591 1476.5 1567.5Q1572 1544 1629 1510Q1760 1595 1887.5 1642.5Q2015 1690 2115 1690Q2185 1690 2215.5 1645Q2246 1600 2246 1515Q2246 1442 2226 1328.5Q2206 1215 2171 1093Q2240 1028 2310 930.5Q2380 833 2436.5 728Q2493 623 2520 536L2391 426L2557 319Q2288 18 1978 -136Q1668 -290 1300 -290ZM1166 -32Q1115 -32 1067.5 -10Q1020 12 990 46L1047 100Q1096 48 1166 48Q1213 48 1239.5 75Q1266 102 1266 137L1334 137Q1334 102 1361 75Q1388 48 1434 48Q1504 48 1553 100L1610 46Q1580 12 1532.5 -10Q1485 -32 1434 -32Q1353 -32 1300 30Q1247 -32 1166 -32ZM1300 82Q1222 82 1175 124Q1128 166 1128 235Q1128 303 1175.5 345Q1223 387 1300 387Q1377 387 1424.5 345Q1472 303 1472 235Q1472 166 1425 124Q1378 82 1300 82ZM1015 545Q1059 545 1089.5 586.5Q1120 628 1120 686Q1120 744 1089.5 785Q1059 826 1015 826Q971 826 940.5 785Q910 744 910 686Q910 628 940.5 586.5Q971 545 1015 545ZM1300 -210Q1622 -210 1901.5 -83.5Q2181 43 2433 303L2263 417L2432 561Q2339 704 2215 803Q2091 902 1951.5 953.5Q1812 1005 1671 1005Q1594 1005 1542 982.5Q1490 960 1461 902Q1492 920 1530 930Q1568 940 1612 940Q1690 940 1750.5 911Q1811 882 1857 839Q1903 796 1939 753Q1975 710 2004 682Q2042 646 2082.5 601Q2123 556 2150.5 501.5Q2178 447 2178 379Q2178 301 2138.5 226Q2099 151 2032.5 90Q1966 29 1884 -7Q1802 -43 1718 -43Q1688 119 1645.5 228.5Q1603 338 1534.5 417.5Q1466 497 1358 567Q1351 579 1347.5 611Q1344 643 1344 680Q1344 896 1426.5 990Q1509 1084 1671 1084Q1771 1084 1868 1057Q1965 1030 2067 974Q2169 918 2284 830Q2235 907 2181 972.5Q2127 1038 2079 1075Q2119 1206 2142.5 1323Q2166 1440 2166 1515Q2166 1575 2154.5 1592.5Q2143 1610 2115 1610Q2019 1610 1889.5 1557.5Q1760 1505 1642 1420Q1616 1439 1557.5 1460Q1499 1481 1429.5 1496Q1360 1511 1300 1511Q1241 1511 1171.5 1496Q1102 1481 1043.5 1460Q985 1439 958 1420Q840 1505 710.5 1557.5Q581 1610 485 1610Q457 1610 445.5 1592.5Q434 1575 434 1515Q434 1440 457.5 1323Q481 1206 521 1075Q473 1038 419.5 972.5Q366 907 316 830Q431 918 533 974Q635 1030 732.5 1057Q830 1084 929 1084Q1091 1084 1173.5 990Q1256 896 1256 680Q1256 643 1252.5 611Q1249 579 1242 567Q1134 497 1065.5 417.5Q997 338 954.5 228.5Q912 119 882 -43Q798 -43 716 -7Q634 29 567.5 90Q501 151 461.5 226Q422 301 422 379Q422 447 449.5 501.5Q477 556 517.5 601Q558 646 596 682Q625 710 661 753Q697 796 743 839Q789 882 849.5 911Q910 940 988 940Q1032 940 1070 930Q1108 920 1139 902Q1111 960 1058.5 982.5Q1006 1005 929 1005Q789 1005 649 953.5Q509 902 385.5 803.5Q262 705 168 562L337 417L167 303Q419 43 698.5 -83.5Q978 -210 1300 -210ZM613 1183Q591 1211 571.5 1257Q552 1303 539.5 1352.5Q527 1402 527 1439Q527 1505 579 1505Q609 1505 654.5 1486.5Q700 1468 748.5 1437.5Q797 1407 836 1370Q781 1327 726.5 1281Q672 1235 613 1183ZM1585 545Q1629 545 1659.5 586.5Q1690 628 1690 686Q1690 744 1659.5 785Q1629 826 1585 826Q1541 826 1510.5 785Q1480 744 1480 686Q1480 628 1510.5 586.5Q1541 545 1585 545ZM1987 1183Q1929 1235 1874 1281Q1819 1327 1764 1370Q1803 1407 1851.5 1437.5Q1900 1468 1945.5 1486.5Q1991 1505 2021 1505Q2073 1505 2073 1439Q2073 1402 2060.5 1352.5Q2048 1303 2028.5 1257Q2009 1211 1987 1183Z"/>
      </g>
      </svg>