<svg xmlns="http://www.w3.org/2000/svg" viewBox="353 -340 1852 2080">
      <g transform="translate(0, 1400) scale(1,-1)">
      <path fill="currentColor" d="M1311 -340Q1277 -340 1253.5 -317.5Q1230 -295 1230 -259Q1230 -245 1233.5 -230.5Q1237 -216 1242 -201L1243 -198Q1253 -166 1253 -117Q1253 -22 1298 56Q1268 83 1249 114Q1230 145 1219 178Q1207 213 1195 235Q1183 257 1172 273L1170 276Q1149 308 1149 340Q1149 373 1184 394Q1219 415 1276 415Q1369 415 1444 366.5Q1519 318 1560 231Q1619 255 1646 304Q1673 353 1673 438Q1673 542 1600 626.5Q1527 711 1357 778Q1252 819 1123.5 831.5Q995 844 878 844Q835 844 794 843Q753 842 715 840Q684 839 661 838Q638 837 613 837Q540 837 474 864Q408 891 381 934Q366 957 359.5 977Q353 997 353 1025Q353 1074 379 1125.5Q405 1177 457 1203Q483 1310 536 1390Q589 1470 662 1529Q750 1601 875 1643.5Q1000 1686 1169 1686Q1246 1686 1331 1670Q1416 1654 1493 1630Q1570 1606 1622 1580Q1647 1568 1664.5 1562.5Q1682 1557 1703 1557Q1729 1557 1757 1572.5Q1785 1588 1808 1607L1813 1611Q1830 1625 1850.5 1641Q1871 1657 1891 1671Q1932 1700 1976.5 1720Q2021 1740 2081 1740Q2121 1740 2143.5 1722.5Q2166 1705 2166 1673Q2166 1645 2148.5 1620Q2131 1595 2110 1572L2108 1570Q2041 1493 2017.5 1439.5Q1994 1386 1994 1348Q1994 1333 2000 1318.5Q2006 1304 2019 1288Q2100 1194 2152.5 1068Q2205 942 2205 799Q2205 657 2179.5 560Q2154 463 2118 390Q2047 245 1918 135.5Q1789 26 1615 -33Q1573 -169 1489 -254.5Q1405 -340 1311 -340ZM795 1230Q818 1241 848 1251.5Q878 1262 906 1269Q971 1284 1001.5 1317Q1032 1350 1032 1387Q1032 1419 1009.5 1443Q987 1467 931 1467Q859 1467 808 1435Q757 1403 730 1360Q703 1317 703 1282Q709 1286 718.5 1288.5Q728 1291 736 1291Q757 1291 776 1276.5Q795 1262 795 1230ZM1482 584Q1430 584 1365.5 636Q1301 688 1241.5 772.5Q1182 857 1143 957Q1104 1057 1104 1152Q1104 1183 1131.5 1200.5Q1159 1218 1208 1218Q1251 1218 1309 1202.5Q1367 1187 1437 1152Q1474 1134 1500 1089Q1526 1044 1542 986.5Q1558 929 1565.5 873Q1573 817 1573 776Q1573 698 1548.5 641Q1524 584 1482 584ZM1121 581Q1095 581 1049.5 601Q1004 621 957.5 659.5Q911 698 879 753Q847 808 847 878L1127 878L1127 816Q1127 768 1134 736Q1141 704 1153 681L1154 679Q1162 664 1168 651Q1174 638 1174 624Q1174 601 1159 591Q1144 581 1121 581ZM1744 359Q1782 394 1807 448.5Q1832 503 1832 585Q1832 645 1820.5 678.5Q1809 712 1796 737L1795 739Q1785 759 1778 777.5Q1771 796 1771 823Q1771 845 1787 860Q1803 875 1825 875Q1858 875 1880.5 865Q1903 855 1920 841L1925 837Q1936 828 1948.5 821Q1961 814 1975 814Q2004 814 2021 830.5Q2038 847 2038 875Q2038 925 2002.5 955.5Q1967 986 1915.5 1000Q1864 1014 1814 1014Q1787 1014 1757.5 1012.5Q1728 1011 1699 1009L1686 1008Q1661 1006 1639 1005Q1617 1004 1600 1004Q1530 1004 1481 1021Q1432 1038 1387 1060L1381 1063Q1331 1088 1268.5 1108.5Q1206 1129 1104 1129Q1001 1129 899.5 1096Q798 1063 718 1029L711 1026Q647 998 586 990.5Q525 983 455 983L455 981Q457 961 483.5 946.5Q510 932 546.5 924.5Q583 917 613 917Q636 917 658 918Q680 919 711 920Q750 922 792 923Q834 924 878 924Q998 924 1135 911Q1272 898 1387 852Q1576 778 1664.5 674.5Q1753 571 1753 438Q1753 394 1744 359Z"/>
      </g>
      </svg>