<svg xmlns="http://www.w3.org/2000/svg" shape-rendering="crispEdges" viewBox="0 -0.5 16 16"><path stroke="#fff1e8" d="M1 0h3m8 0h3M1 1h1m2 0h1m6 0h1m2 0h1M1 2h1m3 0h1m4 0h1m3 0h1M1 3h1m4 0h4m4 0h1M1 4h1m12 0h1M1 5h1m12 0h1M1 6h1m3 0h1m3 0h1m4 0h1M1 7h1m2 0h1m1 0h1m1 0h1m1 0h1m4 0h1M0 8h1m3 0h1m1 0h1m1 0h1m1 0h1m3 0h1M1 9h1m2 0h1m1 0h1m1 0h1m1 0h1m4 0h1M0 10h1m4 0h1m3 0h1m4 0h1M1 11h1m12 0h1M2 12h1m12 0h1M2 13h1m11 0h1M1 14h1m12 0h1M0 15h1m14 0h1"/><path stroke="#1d2b53" d="M2 1h2m8 0h2M2 2h1m1 0h1m6 0h1m1 0h1M2 3h1m2 0h1m4 0h1m2 0h1M2 4h1m1 0h8m1 0h1M2 5h12M2 6h3m1 0h3m1 0h4M2 7h2m1 0h1m1 0h1m1 0h1m1 0h4M1 8h3m1 0h1m1 0h1m1 0h1m1 0h3M2 9h2m1 0h1m1 0h1m1 0h1m1 0h4M1 10h4m1 0h3m1 0h4M2 11h12M3 12h10m-8 1h6m-9 1h2m8 0h2M1 15h4m6 0h4"/><path stroke="#83769c" d="M3 2h1m8 0h1M3 3h2m6 0h2M3 4h1m8 0h1"/><path stroke="#ff004d" d="M13 12h2M3 13h2m6 0h3M4 14h8m-7 1h6"/></svg>